<svg xmlns="http://www.w3.org/2000/svg" width="150.794" height="180.955" viewBox="0 0 150.794 180.955">
  <g id="help-doc" transform="translate(-71.085 -45.62)">
    <path id="Path_407185" data-name="Path 407185" d="M157.555,221.5c-24.707-.006-49.227-.019-73.747-.012-4.531,0-8.35-1.345-10.937-5.327-1.608-2.476-1.777-5.255-1.778-8.056q-.019-36.685,0-73.369,0-36.97-.005-73.941c0-1.648.067-3.3.2-4.943a10.894,10.894,0,0,1,11.021-10.2c7.432-.042,14.864-.009,22.3-.009q27.347,0,54.693-.027a4.757,4.757,0,0,1,3.684,1.526q19.359,19.444,38.8,38.8a4.128,4.128,0,0,1,1.3,3.2q-.05,33.636-.038,67.271a3.626,3.626,0,0,1-.356,2.2c-2.284-.4-4.63-.81-6.976-1.222-.188-.033-.371-.089-.559-.116-3.41-.5-3.408-.5-3.408-3.9q0-27.633,0-55.265c0-2.651,0-2.654-2.6-2.654q-16.675,0-33.35,0c-2.5,0-2.507-.012-2.508-2.558-.005-11.18-.05-22.361.036-33.54.015-1.956-.583-2.455-2.49-2.45q-32.968.091-65.937,0c-1.844-.005-2.37.545-2.368,2.367q.067,74.132,0,148.263c0,1.919.529,2.484,2.468,2.479,22.487-.063,44.974-.016,67.461-.08,1.913-.006,2.966.484,3.732,2.33a36.432,36.432,0,0,0,5.58,8.687c-1.414.914-2.773.385-4.226.546M169.969,84.152h12.964L164.738,65.987c0,4.154.112,8.58-.029,13C164.543,84.162,164.447,84.159,169.969,84.152Z" fill="rgba(0,0,0,0.5)"/>
    <path id="Path_407186" data-name="Path 407186" d="M364.287,401.114a30.927,30.927,0,0,1-30.558,19c-14.5-.695-27.044-13.051-28.573-27.467a31.213,31.213,0,0,1,24.155-33.538c16.608-3.614,33.784,7.576,36.772,24.335a30.959,30.959,0,0,1-1.8,17.667m-21.381-11.981c.617-.637,1.281-1.236,1.842-1.919,3.105-3.772,2.585-8.095-1.279-11.164a12.333,12.333,0,0,0-6.335-2.326c-4.9-.641-10.066,1.981-11.693,6.021-.386.958-1.262,2.18.295,2.95,1.793.888,4.091.408,4.631-.946a5.645,5.645,0,0,1,4.5-3.647c2.421-.458,5.127.729,6.019,2.645.877,1.882.207,3.763-2,5.6-.926.77-1.882,1.5-2.785,2.3a8.931,8.931,0,0,0-3.068,5.738c-.115.925-.548,2.095,1.052,2.364,2.426.408,3.845.019,4.034-1.43a7.13,7.13,0,0,1,3.138-4.768c.5-.391.965-.822,1.645-1.418m-7.791,15.831c4.026-.282,4.083-.348,3.654-4.2a5.33,5.33,0,0,0-.062-.565.953.953,0,0,0-.608-.669c-2.9-1.322-4.866-.061-4.843,3.112a6.51,6.51,0,0,1,0,.761C333.126,404.6,333.77,404.989,335.115,404.965Z" transform="translate(-144.747 -193.583)" fill="rgba(0,0,0,0.5)"/>
    <path id="Path_407187" data-name="Path 407187" d="M187.4,229.535c-12.636,0-25.081.009-37.526-.012-3.583-.006-5.9-1.729-6.465-4.688a5.473,5.473,0,0,1,4.347-6.533,18.4,18.4,0,0,1,3.407-.273q30.383-.024,60.765,0a26.645,26.645,0,0,1,3.6.241,5.341,5.341,0,0,1,4.768,5.116,5.507,5.507,0,0,1-4.168,5.832,10.848,10.848,0,0,1-3.014.323C204.608,229.533,196.1,229.535,187.4,229.535Z" transform="translate(-44.691 -106.687)" fill="rgba(0,0,0,0.5)"/>
    <path id="Path_407188" data-name="Path 407188" d="M166,275.662c10.669,0,21.147-.018,31.626.012,4.544.013,7.425,3.913,5.776,7.791a5.225,5.225,0,0,1-5.009,3.478q-24.862.044-49.725,0a5.523,5.523,0,0,1-5.454-5.5,5.624,5.624,0,0,1,5.641-5.749C154.5,275.614,160.158,275.665,166,275.662Z" transform="translate(-44.636 -142.352)" fill="rgba(0,0,0,0.5)"/>
    <path id="Path_407189" data-name="Path 407189" d="M178.074,333.143a80.28,80.28,0,0,1,9.881.137,5.4,5.4,0,0,1,4.938,4.739,5.575,5.575,0,0,1-3.754,6.123,8.174,8.174,0,0,1-2.426.4c-12.444.017-24.888.036-37.331-.026-4.042-.02-6.59-3.116-5.894-6.894a5.273,5.273,0,0,1,5.461-4.334c8.634-.036,17.269-.02,25.9-.034C175.866,333.25,176.881,333.191,178.074,333.143Z" transform="translate(-44.736 -177.881)" fill="rgba(0,0,0,0.5)"/>
  </g>
</svg>
